<?xml version="1.0" encoding="utf-8"?>
<svg version="1.1" xmlns="http://www.w3.org/2000/svg" xmlns:xlink="http://www.w3.org/1999/xlink" x="0px" y="0px"
	 viewBox="0 0 1207.15 222.64" style="enable-background:new 0 0 1207.15 222.64;" xml:space="preserve">
<style type="text/css">
	.st0{fill:#FBFBFB;}
	.st1{fill:#9039C0;}
	.st2{fill:#602A6E;}
	.st3{opacity:0.7;fill:#CB1CFF;}
</style>
<g id="Layer_1">
	<g>
		<path class="st0" d="M550.96,146.76c-0.02,0-0.04,0-0.06,0c0-5.67,0.19-11.34-0.04-16.99c-0.38-9.13-8.06-14.69-15.56-11.36
			c-5.39,2.39-6.97,7.11-6.97,12.59c-0.01,11.87-0.05,23.74,0.7,35.61c1.43,22.48,20.43,41.01,43.94,41.47
			c23.98,0.47,43.3-17.29,46.18-39.18c1.7-12.93,0.52-25.92,0.81-38.87c0.03-1.42-0.4-2.88-0.77-4.29
			c-1.82-7.05-9.84-10.33-16.11-6.62c-4.43,2.62-5.83,6.73-5.83,11.62c-0.01,11.15,0.26,22.31-0.23,33.44
			c-0.54,12.21-11.1,21.49-23.48,21.37c-11.82-0.12-22.02-9.87-22.53-21.79C550.76,158.1,550.96,152.42,550.96,146.76z"/>
		<path class="st0" d="M390.79,149.36c0-7.7,0-13.92,0-20.14c0-3.24-0.83-6.18-3.29-8.42c-3.36-3.07-7.17-4.28-11.61-2.48
			c-4.77,1.93-7.25,5.53-7.31,10.57c-0.13,10.61,0.06,21.22-0.13,31.82c-0.27,14.94-10.54,25.34-24.21,24.78
			c-12.8-0.53-21.88-10.34-22.24-24.43c-0.28-10.78,0.11-21.59-0.32-32.36c-0.28-7.05-4.92-11.29-11-11.19
			c-6.18,0.1-11.05,4.98-11.14,11.89c-0.15,10.79-0.01,21.58,0.23,32.37c0.09,4,0.4,8.09,1.35,11.95
			c4.88,19.85,23.09,34.46,43.6,34.39c20.54-0.07,37.75-13.1,43.92-31.94C391.69,166.82,390.29,157.32,390.79,149.36z"/>
		<path class="st0" d="M201.66,157.77c-0.39,22.28,10.66,39.03,28.03,46.44c16.12,6.88,36.09,3.1,48.84-9.26
			c4.44-4.3,4.97-10.49,1.32-15.31c-3.35-4.42-9.57-5.42-14.72-2.28c-1.55,0.94-2.93,2.16-4.39,3.24
			c-9.11,6.73-22.07,5.69-30.03-2.42c-8.32-8.47-8.99-20.45-2.11-29.93c7.72-10.65,24.18-11.99,34-3.32
			c6.2,5.47,13.04,4.99,17.04,0.07c4.46-5.5,3.33-12.35-3.23-17.59c-14.54-11.62-30.68-14.17-47.67-6.67
			C211.23,128.46,202.51,142.61,201.66,157.77z"/>
		<path class="st0" d="M639.07,178.76c0.41,5.93-0.71,12.55,0.59,19.05c1.13,5.69,5.91,9.53,11.15,9.35
			c5.04-0.17,9.42-4.07,10.49-9.56c0.38-1.95,0.43-3.99,0.44-5.99c0.07-10.23-0.19-20.48,0.18-30.7c0.35-9.96,5.72-16.8,14.93-20.29
			c9.3-3.52,17.39-0.76,24.91,5.28c5.31,4.27,11.83,3.57,15.69-1.02c4.08-4.86,3.41-11.63-1.59-16.18
			c-24.61-22.38-64.04-12.02-74.36,19.54C638.29,158.02,639.3,168.13,639.07,178.76z"/>
		<path class="st0" d="M911.13,175.74c0,6.52-0.01,11.82,0,17.12c0.03,8.75,4.08,14.04,10.92,14.28c6.88,0.24,11.23-5.26,11.28-14.4
			c0.05-9.5-0.13-19,0.05-28.5c0.3-16.35,11.28-26.52,26.53-24.91c5.57,0.59,9.69,3.77,13.99,6.91c5.38,3.93,12.13,3.03,15.66-1.63
			c3.65-4.82,2.89-11.32-1.85-15.78c-23.4-22-62.18-12.75-73.59,17.3C910.27,156.27,911.53,166.63,911.13,175.74z"/>
		<path class="st0" d="M434.81,144.31c0.01,0,0.02,0,0.02,0c0-16.81,0.1-33.62-0.04-50.42c-0.07-8.49-5.63-13.15-13.4-11.68
			c-5.44,1.03-8.76,5.7-8.79,12.78c-0.06,17.36-0.02,34.71-0.02,52.07c0,14.8,0,29.6,0.01,44.39c0,1.64-0.05,3.3,0.13,4.93
			c0.74,6.51,5.59,10.9,11.71,10.71c5.82-0.19,10.26-4.69,10.32-11.25C434.92,178.65,434.81,161.48,434.81,144.31z"/>
		<path class="st1" d="M550.96,146.76c0,5.67-0.2,11.34,0.04,16.99c0.51,11.92,10.71,21.67,22.53,21.79
			c12.38,0.12,22.94-9.15,23.48-21.37c0.49-11.13,0.22-22.29,0.23-33.44c0-4.88,1.4-8.99,5.83-11.62
			c6.27-3.71,14.29-0.44,16.11,6.62c0.36,1.41,0.8,2.86,0.77,4.29c-0.29,12.96,0.89,25.94-0.81,38.87
			c-2.87,21.88-22.2,39.65-46.18,39.18c-23.51-0.46-42.51-18.99-43.94-41.47c-0.76-11.87-0.71-23.73-0.7-35.61
			c0-5.47,1.58-10.19,6.97-12.59c7.51-3.33,15.18,2.23,15.56,11.36c0.24,5.66,0.04,11.33,0.04,16.99
			C550.92,146.76,550.94,146.76,550.96,146.76z"/>
		<path class="st1" d="M390.79,149.36c-0.5,7.96,0.9,17.46-2.16,26.81c-6.17,18.84-23.38,31.87-43.92,31.94
			c-20.51,0.07-38.72-14.54-43.6-34.39c-0.95-3.87-1.26-7.96-1.35-11.95c-0.25-10.79-0.39-21.58-0.23-32.37
			c0.1-6.91,4.96-11.79,11.14-11.89c6.08-0.1,10.72,4.13,11,11.19c0.43,10.77,0.05,21.58,0.32,32.36
			c0.36,14.09,9.44,23.9,22.24,24.43c13.66,0.56,23.94-9.84,24.21-24.78c0.19-10.61,0-21.22,0.13-31.82
			c0.06-5.04,2.54-8.64,7.31-10.57c4.44-1.79,8.25-0.59,11.61,2.48c2.46,2.24,3.29,5.18,3.29,8.42
			C390.79,135.44,390.79,141.66,390.79,149.36z"/>
		<path class="st1" d="M201.66,157.77c0.85-15.16,9.57-29.31,27.07-37.03c16.99-7.5,33.14-4.95,47.67,6.67
			c6.56,5.24,7.7,12.09,3.23,17.59c-3.99,4.92-10.84,5.4-17.04-0.07c-9.82-8.67-26.28-7.32-34,3.32
			c-6.88,9.49-6.21,21.46,2.11,29.93c7.96,8.11,20.91,9.15,30.03,2.42c1.46-1.08,2.84-2.29,4.39-3.24
			c5.15-3.15,11.36-2.14,14.72,2.28c3.66,4.82,3.13,11.01-1.32,15.31c-12.76,12.35-32.72,16.14-48.84,9.26
			C212.32,196.81,201.26,180.05,201.66,157.77z"/>
		<path class="st1" d="M639.07,178.76c0.24-10.63-0.77-20.74,2.42-30.51c10.32-31.56,49.75-41.92,74.36-19.54
			c5,4.55,5.67,11.33,1.59,16.18c-3.85,4.59-10.37,5.28-15.69,1.02c-7.52-6.04-15.62-8.81-24.91-5.28
			c-9.21,3.49-14.58,10.33-14.93,20.29c-0.36,10.22-0.11,20.47-0.18,30.7c-0.01,2-0.06,4.04-0.44,5.99
			c-1.06,5.49-5.45,9.39-10.49,9.56c-5.24,0.17-10.02-3.67-11.15-9.35C638.36,191.31,639.48,184.7,639.07,178.76z"/>
		<path class="st1" d="M911.13,175.74c0.4-9.11-0.85-19.47,3-29.62c11.41-30.05,50.19-39.3,73.59-17.3
			c4.74,4.46,5.5,10.95,1.85,15.78c-3.53,4.66-10.28,5.56-15.66,1.63c-4.31-3.15-8.43-6.33-13.99-6.91
			c-15.25-1.6-26.23,8.57-26.53,24.91c-0.18,9.5,0,19-0.05,28.5c-0.05,9.14-4.4,14.64-11.28,14.4c-6.85-0.24-10.9-5.52-10.92-14.28
			C911.11,187.56,911.13,182.26,911.13,175.74z"/>
		<path class="st1" d="M434.81,144.31c0,17.17,0.11,34.35-0.05,51.52c-0.06,6.56-4.51,11.06-10.32,11.25
			c-6.12,0.2-10.97-4.2-11.71-10.71c-0.18-1.63-0.13-3.28-0.13-4.93c-0.01-14.8-0.01-29.6-0.01-44.39c0-17.36-0.04-34.71,0.02-52.07
			c0.03-7.08,3.35-11.75,8.79-12.78c7.76-1.46,13.32,3.19,13.4,11.68c0.15,16.81,0.04,33.61,0.04,50.42
			C434.83,144.31,434.82,144.31,434.81,144.31z"/>
		<g>
			<path class="st2" d="M66.61,218.47c-4.03,0-7.56-2.48-9.46-6.64c-2.81-6.17-0.99-11.88,4.63-14.53
				c7.25-3.42,14.48-6.63,21.5-9.53c2.48-1.03,3.21-2.09,3.11-4.57c-0.23-5.94-0.24-12.18-0.02-19.08c0.07-2.13-0.17-2.56-0.25-2.65
				c0,0,0,0,0,0c-0.01,0-0.08-0.02-0.24-0.02c-0.49,0-1.25,0.2-2.27,0.59c-7.09,2.72-14.41,4.09-21.76,4.09
				c-26.21,0-48.66-17.34-55.85-43.15c-3.96-14.19-2.13-29.34,5.13-42.65c7.28-13.33,19.04-23.03,33.12-27.3
				c2.79-0.85,3.45-1.67,3.54-4.42C48.51,25.89,65.1,7.54,88.15,3.98c2.16-0.33,4.37-0.5,6.58-0.5c19.33,0,37.24,12.68,43.55,30.84
				c1.08,3.12,2.64,4.49,6.16,5.42c24.85,6.62,42.07,28.43,42.86,54.27c0.77,25.24-15.41,48.48-39.36,56.5
				c-6.71,2.25-12.76,3.34-18.49,3.34c-3.17,0-6.3-0.34-9.3-1.02c-0.8-0.18-1.44-0.27-1.96-0.27c-0.85,0-1.08,0.24-1.15,0.32
				c-0.21,0.22-0.53,0.88-0.38,2.76c0.26,3.18,0.2,6.4,0.14,9.51c-0.03,1.36-0.05,2.72-0.05,4.08c0,1.21,0.04,2.43,0.07,3.65
				c0.08,2.79,0.17,5.67-0.19,8.5c-0.49,3.84,0.77,5.68,4.98,7.29c5.38,2.06,10.71,4.48,15.86,6.82l2.53,1.15
				c6.71,3.04,8.82,8.13,6.09,14.74c-1.86,4.51-5.26,7-9.56,7c-1.67,0-3.44-0.39-5.26-1.15c-6.04-2.53-11.28-4.84-16.04-7.06
				c-0.73-0.34-1.3-0.5-1.8-0.5c-0.44,0-1.08,0.1-2.17,0.92c-3.32,2.49-6.5,3.7-9.72,3.7c-3.24,0-6.44-1.22-9.8-3.74
				c-1.03-0.77-1.66-0.87-2.09-0.87c-0.51,0-1.11,0.17-1.89,0.52c-5.74,2.63-11.45,5.12-16.98,7.4
				C69.41,218.18,68,218.47,66.61,218.47z M110.87,197.57c1.17,0,2.45,0.34,4.13,1.11c5.37,2.44,11.14,4.97,18.71,8.19
				c0.27,0.11,0.54,0.25,0.83,0.39c0.49,0.24,1.09,0.55,1.42,0.55c0.04,0,0.22-0.11,0.43-0.66c0.23-0.61,0.25-0.66-1.21-1.22
				c-0.27-0.1-0.53-0.21-0.78-0.31c-1.56-0.7-3.12-1.4-4.68-2.1c-5.76-2.6-11.72-5.29-17.67-7.67c-4.07-1.64-5.79-4.15-5.76-8.4
				c0.11-14.83,0.12-31,0.01-49.44c-0.02-3.88,1.46-6.35,4.79-8c4.66-2.3,9.34-4.76,13.87-7.13c2.46-1.29,4.92-2.58,7.39-3.86
				l0.1-0.05c0.73-0.38,1.83-0.94,1.97-1.4c0.06-0.19-0.08-0.5-0.17-0.67c-0.28-0.53-0.46-0.53-0.59-0.53c-0.5,0-1.3,0.42-2,0.78
				l-0.26,0.14c-2.19,1.13-4.37,2.26-6.55,3.4c-5.7,2.97-11.59,6.03-17.48,8.88c-4.67,2.26-6.7,5.67-6.59,11.06
				c0.13,6.33,0.1,12.76,0.07,18.98c-0.01,2.68-0.02,5.35-0.02,8.03v1.42h-0.04l0,5.45c0,6.7-0.01,13.4,0.01,20.1
				c0,1.47,0.03,3.17,0.29,4.75c0.33,2.02,0.83,2.87,1.87,3.14c0.21,0.06,0.42,0.08,0.61,0.08c1.09,0,1.87-0.96,2.33-1.76
				C107.15,198.66,108.81,197.57,110.87,197.57z M94.24,14.1c-5.1,0-9.98,1.04-14.5,3.09C65.2,23.8,57.24,37.64,58.45,54.21
				c0.14,1.93,0.11,4.1-1.2,5.59c-0.95,1.08-2.36,1.64-4.45,1.77c-0.58,0.03-1.22,0.21-1.89,0.4c-0.26,0.07-0.51,0.14-0.77,0.21
				c-12.68,3.2-23.59,11.75-29.91,23.47c-6.29,11.66-7.47,25.37-3.22,37.62c6.74,19.46,24.98,32.54,45.37,32.54c0,0,0,0,0,0
				c6.37,0,12.59-1.29,18.47-3.83c4.75-2.05,12.17-9.19,1.01-19.7c-5.75-5.41-11.16-10.94-16.67-16.6
				c-5.5-5.66-6.11-12.87-1.48-17.54c2.01-2.02,4.6-3.09,7.48-3.09c3.48,0,7.08,1.59,10.12,4.48c3.41,3.24,6.89,6.72,10.64,10.64
				c1.18,1.23,1.91,1.67,2.8,1.67c0.48,0,1.03-0.13,1.67-0.39c1.99-0.81,4.03-1.23,5.89-1.23c2.46,0,4.58,0.75,6.13,2.18
				c1.53,1.4,2.94,2.06,4.41,2.06c2,0,4.09-1.24,6.31-2.56c1.81-1.07,3.7-2.01,5.54-2.92c0.69-0.34,1.38-0.69,2.07-1.03
				c2.6-1.32,5.08-1.99,7.38-1.99c4.12,0,7.42,2.1,9.55,6.06c1.46,2.72,1.81,5.56,1,8.21c-0.97,3.18-3.52,5.94-7.39,8
				c-5.44,2.89-11.23,5.87-18.21,9.4c-1.97,1-2.6,1.57-2.4,2.98c0.13,0.97,0.49,1.12,2.11,1.38c0.31,0.05,0.63,0.1,0.93,0.17
				c3.2,0.68,6.47,1.03,9.72,1.03c25.34,0,46.57-20.71,47.33-46.16c0.7-23.53-15.45-43.65-38.4-47.86c-4.87-0.89-8.1-2.62-9.12-8.46
				c-0.98-5.6-3.95-10.81-9.08-15.93C113.42,17.98,103.96,14.1,94.24,14.1z"/>
			<path class="st2" d="M28,116.24c-0.88,0-1.67-0.31-2.27-0.91c-1-0.99-1.46-2.72-1.4-5.29C24.76,91.09,40.52,74.1,61,70.51
				c4-0.7,6.39-1.12,7.12-2.04c0.74-0.92,0.5-3.3,0.05-7.12c-1.44-12.21,3.39-20.51,7.7-25.33c5.76-6.43,14.29-10.57,22.26-10.81
				c0.29-0.01,0.61-0.04,0.93-0.06c0.48-0.04,0.98-0.08,1.46-0.08c2.93,0,3.79,1.72,3.99,3.16c0.17,1.23-0.06,2.24-0.69,3
				c-1.04,1.25-2.8,1.39-4.21,1.5c-0.3,0.02-0.6,0.05-0.88,0.08C83.64,34.65,74.58,45.67,76.2,60.25l0.13,1.22
				c0.26,2.4,0.52,4.87,1.11,7.18c0.61,2.38,0.43,4.2-0.54,5.55c-1.34,1.88-3.93,2.38-5.77,2.59c-3.77,0.44-8.71,1.12-13.44,2.49
				c-14.23,4.12-24.17,16.15-25.31,30.65c-0.01,0.08-0.01,0.16-0.01,0.24l-0.02,0.71c-0.04,1.77-0.12,4.74-3.72,5.31
				C28.41,116.23,28.2,116.24,28,116.24z"/>
		</g>
		<g>
			<path class="st1" d="M479.55,161.3c0.23,13.59,8.48,22.67,21.9,24.21c4.99,0.57,9.3,2.19,11.44,7.15
				c3.12,7.24-2.81,15.38-11.17,15.45c-21.92,0.2-42.53-18.94-44.14-40.82c-0.41-5.62-0.66-11.23-0.71-16.84h-0.01v-32.98
				c-0.08-2.02-0.07-4.03,0-6.05v-1.22h0.04c0.13-2.67,0.37-5.33,0.69-7.98c0.63-5.3,4.89-8.78,10.1-9.01
				c5.24-0.24,9.57,2.82,11.07,7.88c0.89,3,0.86,6.05,0.78,9.11"/>
			<path class="st3" d="M496.24,140.12h-29.29c-5.39,0-9.75-4.37-9.75-9.75v-3.18c0-5.39,4.37-9.75,9.75-9.75h29.29
				c5.39,0,9.75,4.37,9.75,9.75v3.18C505.99,135.76,501.63,140.12,496.24,140.12z"/>
		</g>
		<g>
			<path class="st1" d="M862.31,161.3c0.23,13.59,8.48,22.67,21.9,24.21c4.99,0.57,9.3,2.19,11.44,7.15
				c3.12,7.24-2.81,15.38-11.17,15.45c-21.92,0.2-42.53-18.94-44.14-40.82c-0.41-5.62-0.66-11.23-0.71-16.84h-0.01v-32.98
				c-0.08-2.02-0.07-4.03,0-6.05v-1.22h0.04c0.13-2.67,0.37-5.33,0.69-7.98c0.63-5.3,4.89-8.78,10.1-9.01
				c5.24-0.24,9.57,2.82,11.07,7.88c0.89,3,0.86,6.05,0.78,9.11"/>
			<path class="st3" d="M879,140.12h-29.29c-5.39,0-9.75-4.37-9.75-9.75v-3.18c0-5.39,4.37-9.75,9.75-9.75H879
				c5.39,0,9.75,4.37,9.75,9.75v3.18C888.76,135.76,884.39,140.12,879,140.12z"/>
		</g>
		<g>
			<path class="st3" d="M1049.61,207.53c-7.83,0-19.2-0.94-27.47-9.08c-3.39-3.33-4.41-8.14-2.65-12.53
				c1.82-4.57,6.18-7.52,11.12-7.52c2.92,0,5.17,1.47,6.98,2.65c0.34,0.22,0.68,0.45,1.03,0.66c2.96,1.82,6.31,2.18,10.75,2.18
				c3.95,0,9.36-1.53,12.33-3.48l0.7-0.47c2.02-1.36,4.31-2.89,7.4-2.89c4.8,0,8.82,2.86,10.51,7.46c1.73,4.72,0.43,9.88-3.31,13.16
				C1069.76,204.03,1060.03,207.53,1049.61,207.53z"/>
			<path class="st1" d="M1096.21,158.84c-2.37-22.67-20.77-40.61-43.17-42.08c-25.45-1.67-46.86,17.49-49.36,42.33
				c-0.14,0.75-0.22,1.53-0.22,2.32c0,0.19,0.02,0.37,0.03,0.56c0.29,6.47,5.53,11.63,11.96,11.63c6.03,0,11.01-4.53,11.85-10.42
				c0.08-0.58,0.14-1.17,0.14-1.77c0-0.04-0.01-0.08-0.01-0.12c1.34-11.83,11.52-22.38,23.64-21.79
				c11.03,0.54,20.08,10.76,21.39,21.71c0,0.07-0.01,0.13-0.01,0.2c0,0.65,0.06,1.28,0.16,1.9c0.9,5.84,5.86,10.32,11.86,10.32
				c6.36,0,11.55-5.02,11.97-11.38c0.02-0.28,0.04-0.55,0.04-0.83C1096.48,160.53,1096.39,159.67,1096.21,158.84z"/>
			<path class="st3" d="M1084.47,173.63c6.64,0,12.01-5.21,12.01-11.64s-5.38-11.64-12.01-11.64l-69.02,0.02
				c-6.62,0-11.99,5.2-11.99,11.62s5.37,11.62,11.99,11.62"/>
		</g>
		<g>
			<path class="st3" d="M1154.14,207.53c-7.83,0-19.2-0.94-27.47-9.08c-3.39-3.33-4.41-8.14-2.65-12.53
				c1.82-4.57,6.18-7.52,11.12-7.52c2.92,0,5.17,1.47,6.98,2.65c0.34,0.22,0.68,0.45,1.03,0.66c2.96,1.82,6.31,2.18,10.75,2.18
				c3.95,0,9.36-1.53,12.33-3.48l0.7-0.47c2.02-1.36,4.31-2.89,7.4-2.89c4.8,0,8.82,2.86,10.51,7.46c1.73,4.72,0.43,9.88-3.31,13.16
				C1174.3,204.03,1164.57,207.53,1154.14,207.53z"/>
			<path class="st1" d="M1200.75,158.84c-2.37-22.67-20.77-40.61-43.17-42.08c-25.45-1.67-46.86,17.49-49.36,42.33
				c-0.14,0.75-0.22,1.53-0.22,2.32c0,0.19,0.02,0.37,0.03,0.56c0.29,6.47,5.53,11.63,11.96,11.63c6.03,0,11.01-4.53,11.85-10.42
				c0.08-0.58,0.14-1.17,0.14-1.77c0-0.04-0.01-0.08-0.01-0.12c1.34-11.83,11.52-22.38,23.64-21.79
				c11.03,0.54,20.08,10.76,21.39,21.71c0,0.07-0.01,0.13-0.01,0.2c0,0.65,0.06,1.28,0.16,1.9c0.9,5.84,5.86,10.32,11.86,10.32
				c6.36,0,11.55-5.02,11.97-11.38c0.02-0.28,0.04-0.55,0.04-0.83C1201.02,160.53,1200.92,159.67,1200.75,158.84z"/>
			<path class="st3" d="M1189.01,173.63c6.64,0,12.01-5.21,12.01-11.64s-5.38-11.64-12.01-11.64l-69.02,0.02
				c-6.62,0-11.99,5.2-11.99,11.62s5.37,11.62,11.99,11.62"/>
		</g>
		<g>
			<path class="st3" d="M776.95,207.53c-7.83,0-19.2-0.94-27.47-9.08c-3.39-3.33-4.41-8.14-2.65-12.53
				c1.82-4.57,6.18-7.52,11.12-7.52c2.92,0,5.17,1.47,6.98,2.65c0.34,0.22,0.68,0.45,1.03,0.66c2.96,1.82,6.31,2.18,10.75,2.18
				c3.95,0,9.36-1.53,12.33-3.48l0.7-0.47c2.02-1.36,4.31-2.89,7.4-2.89c4.8,0,8.82,2.86,10.51,7.46c1.73,4.72,0.43,9.88-3.31,13.16
				C797.1,204.03,787.37,207.53,776.95,207.53z"/>
			<path class="st1" d="M823.55,158.84c-2.37-22.67-20.77-40.61-43.17-42.08c-25.45-1.67-46.86,17.49-49.36,42.33
				c-0.14,0.75-0.22,1.53-0.22,2.32c0,0.19,0.02,0.37,0.03,0.56c0.29,6.47,5.53,11.63,11.96,11.63c6.03,0,11.01-4.53,11.85-10.42
				c0.08-0.58,0.14-1.17,0.14-1.77c0-0.04-0.01-0.08-0.01-0.12c1.34-11.83,11.52-22.38,23.64-21.79
				c11.03,0.54,20.08,10.76,21.39,21.71c0,0.07-0.01,0.13-0.01,0.2c0,0.65,0.06,1.28,0.16,1.9c0.9,5.84,5.86,10.32,11.86,10.32
				c6.36,0,11.55-5.02,11.97-11.38c0.02-0.28,0.04-0.55,0.04-0.83C823.83,160.53,823.73,159.67,823.55,158.84z"/>
			<path class="st3" d="M811.81,173.63c6.64,0,12.01-5.21,12.01-11.64s-5.38-11.64-12.01-11.64l-69.02,0.02
				c-6.62,0-11.99,5.2-11.99,11.62s5.37,11.62,11.99,11.62"/>
		</g>
	</g>
</g>
<g id="Layer_2">
</g>
</svg>
